<mxfile host="Electron" modified="2023-05-23T12:53:12.972Z" agent="Mozilla/5.0 (X11; Linux x86_64) AppleWebKit/537.36 (KHTML, like Gecko) draw.io/21.2.8 Chrome/112.0.5615.165 Electron/24.2.0 Safari/537.36" etag="Dx254kPwBnXD2edROxCq" version="21.2.8" type="device">
  <diagram name="Pagina-1" id="2e58ADdJMeMY7nPUtOMu">
    <mxGraphModel dx="1220" dy="722" grid="1" gridSize="10" guides="1" tooltips="1" connect="1" arrows="1" fold="1" page="1" pageScale="1" pageWidth="1169" pageHeight="827" math="0" shadow="0">
      <root>
        <mxCell id="0" />
        <mxCell id="1" parent="0" />
        <mxCell id="5OWKBknbtrmNs2glZ5Vp-1" value="Internet" style="ellipse;shape=cloud;whiteSpace=wrap;html=1;fontSize=20;" vertex="1" parent="1">
          <mxGeometry x="345" y="150" width="300" height="180" as="geometry" />
        </mxCell>
        <mxCell id="5OWKBknbtrmNs2glZ5Vp-2" value="Actor" style="shape=umlActor;verticalLabelPosition=bottom;verticalAlign=top;html=1;outlineConnect=0;" vertex="1" parent="1">
          <mxGeometry x="480" y="30" width="30" height="60" as="geometry" />
        </mxCell>
        <mxCell id="5OWKBknbtrmNs2glZ5Vp-5" value="" style="endArrow=classic;html=1;rounded=0;" edge="1" parent="1" source="5OWKBknbtrmNs2glZ5Vp-2" target="5OWKBknbtrmNs2glZ5Vp-1">
          <mxGeometry width="50" height="50" relative="1" as="geometry">
            <mxPoint x="560" y="400" as="sourcePoint" />
            <mxPoint x="610" y="350" as="targetPoint" />
          </mxGeometry>
        </mxCell>
        <mxCell id="5OWKBknbtrmNs2glZ5Vp-8" value="" style="endArrow=classic;startArrow=classic;html=1;rounded=0;" edge="1" parent="1" source="5OWKBknbtrmNs2glZ5Vp-11" target="5OWKBknbtrmNs2glZ5Vp-1">
          <mxGeometry width="50" height="50" relative="1" as="geometry">
            <mxPoint x="495" y="410" as="sourcePoint" />
            <mxPoint x="610" y="350" as="targetPoint" />
          </mxGeometry>
        </mxCell>
        <mxCell id="5OWKBknbtrmNs2glZ5Vp-9" value="DB" style="shape=cylinder3;whiteSpace=wrap;html=1;boundedLbl=1;backgroundOutline=1;size=15;fontSize=20;" vertex="1" parent="1">
          <mxGeometry x="150" y="590" width="120" height="120" as="geometry" />
        </mxCell>
        <mxCell id="5OWKBknbtrmNs2glZ5Vp-10" value="API REST" style="shape=process;whiteSpace=wrap;html=1;backgroundOutline=1;fontSize=18;" vertex="1" parent="1">
          <mxGeometry x="140" y="414" width="140" height="110" as="geometry" />
        </mxCell>
        <mxCell id="5OWKBknbtrmNs2glZ5Vp-11" value="Player" style="shape=step;perimeter=stepPerimeter;whiteSpace=wrap;html=1;fixedSize=1;fontSize=18;" vertex="1" parent="1">
          <mxGeometry x="380" y="404" width="220" height="130" as="geometry" />
        </mxCell>
        <mxCell id="5OWKBknbtrmNs2glZ5Vp-12" value="Course" style="shape=trapezoid;perimeter=trapezoidPerimeter;whiteSpace=wrap;html=1;fixedSize=1;fontSize=19;" vertex="1" parent="1">
          <mxGeometry x="720" y="414" width="180" height="110" as="geometry" />
        </mxCell>
        <mxCell id="5OWKBknbtrmNs2glZ5Vp-14" value="" style="endArrow=classic;startArrow=classic;html=1;rounded=0;" edge="1" parent="1" source="5OWKBknbtrmNs2glZ5Vp-9" target="5OWKBknbtrmNs2glZ5Vp-10">
          <mxGeometry width="50" height="50" relative="1" as="geometry">
            <mxPoint x="560" y="390" as="sourcePoint" />
            <mxPoint x="610" y="340" as="targetPoint" />
          </mxGeometry>
        </mxCell>
        <mxCell id="5OWKBknbtrmNs2glZ5Vp-15" value="" style="endArrow=classic;startArrow=classic;html=1;rounded=0;" edge="1" parent="1" source="5OWKBknbtrmNs2glZ5Vp-10" target="5OWKBknbtrmNs2glZ5Vp-11">
          <mxGeometry width="50" height="50" relative="1" as="geometry">
            <mxPoint x="560" y="390" as="sourcePoint" />
            <mxPoint x="610" y="340" as="targetPoint" />
          </mxGeometry>
        </mxCell>
        <mxCell id="5OWKBknbtrmNs2glZ5Vp-16" value="" style="shape=flexArrow;endArrow=classic;html=1;rounded=0;" edge="1" parent="1" source="5OWKBknbtrmNs2glZ5Vp-11" target="5OWKBknbtrmNs2glZ5Vp-12">
          <mxGeometry width="50" height="50" relative="1" as="geometry">
            <mxPoint x="560" y="390" as="sourcePoint" />
            <mxPoint x="610" y="340" as="targetPoint" />
          </mxGeometry>
        </mxCell>
        <mxCell id="5OWKBknbtrmNs2glZ5Vp-17" value="" style="endArrow=classic;startArrow=classic;html=1;rounded=0;" edge="1" parent="1" source="5OWKBknbtrmNs2glZ5Vp-18" target="5OWKBknbtrmNs2glZ5Vp-12">
          <mxGeometry width="50" height="50" relative="1" as="geometry">
            <mxPoint x="470" y="640" as="sourcePoint" />
            <mxPoint x="610" y="340" as="targetPoint" />
            <Array as="points">
              <mxPoint x="550" y="630" />
              <mxPoint x="810" y="630" />
            </Array>
          </mxGeometry>
        </mxCell>
        <mxCell id="5OWKBknbtrmNs2glZ5Vp-18" value="API SCORM" style="ellipse;whiteSpace=wrap;html=1;" vertex="1" parent="1">
          <mxGeometry x="515" y="484" width="70" height="50" as="geometry" />
        </mxCell>
      </root>
    </mxGraphModel>
  </diagram>
</mxfile>
